<?xml version="1.0" standalone="no"?>
<!DOCTYPE svg PUBLIC "-//W3C//DTD SVG 20010904//EN"
 "http://www.w3.org/TR/2001/REC-SVG-20010904/DTD/svg10.dtd">
<svg version="1.0" xmlns="http://www.w3.org/2000/svg"
 width="512.000000pt" height="512.000000pt" viewBox="0 0 512.000000 512.000000"
 preserveAspectRatio="xMidYMid meet">
<metadata>
Created by potrace 1.14, written by Peter Selinger 2001-2017
</metadata>
<g transform="translate(0.000000,512.000000) scale(0.100000,-0.100000)"
fill="#000000" stroke="none">
<path d="M2936 5094 c-136 -27 -261 -80 -371 -159 -75 -54 -2001 -1983 -2044
-2047 -49 -74 -109 -205 -132 -293 -32 -116 -32 -325 -1 -448 81 -324 328
-575 657 -668 78 -22 96 -23 598 -27 l518 -3 180 178 c98 97 179 181 179 185
0 5 -298 8 -663 8 -730 0 -722 -1 -840 62 -178 95 -287 280 -287 486 0 100 16
169 61 262 29 60 110 144 996 1031 745 746 979 975 1027 1003 176 105 394 108
566 8 110 -63 214 -193 251 -311 27 -86 29 -232 4 -316 -40 -140 -46 -148
-549 -652 l-471 -473 651 0 c616 0 655 -1 728 -20 98 -25 165 -61 237 -128
183 -169 228 -421 117 -652 -39 -82 -52 -96 -332 -379 l-291 -293 150 5 c113
4 169 10 224 26 332 97 572 345 657 681 25 99 26 314 1 414 -45 180 -131 329
-265 458 -124 119 -233 181 -407 231 -59 16 -111 20 -323 24 l-254 5 154 157
c167 169 236 262 288 387 99 238 91 534 -21 757 -108 214 -291 382 -498 457
-156 57 -345 74 -495 44z"/>
</g>
</svg>
