<?xml version="1.0" encoding="UTF-8"?><svg id="Layer_2" xmlns="http://www.w3.org/2000/svg" xmlns:xlink="http://www.w3.org/1999/xlink" viewBox="0 0 512 512"><defs><style>.cls-1{fill:url(#linear-gradient-2);}.cls-2{fill:#fff;opacity:.2;}.cls-3{fill:none;}.cls-4{fill:url(#linear-gradient);}.cls-5{fill:#ff9100;}</style><linearGradient id="linear-gradient" x1="2970.67" y1="-852.76" x2="2742.03" y2="-1114.71" gradientTransform="translate(-2596.99 1214.09)" gradientUnits="userSpaceOnUse"><stop offset="0" stop-color="#ff0068"/><stop offset="1" stop-color="#ff9100"/></linearGradient><linearGradient id="linear-gradient-2" x1="2787.67" y1="-1085.98" x2="2926.15" y2="-775.77" gradientTransform="translate(-2596.99 1214.09)" gradientUnits="userSpaceOnUse"><stop offset="0" stop-color="#ffa750"/><stop offset="1" stop-color="#ff9100"/></linearGradient></defs><g id="Layer_1-2"><rect class="cls-3" width="512" height="512"/><g><path class="cls-4" d="M127.04,366.54c-11.59,0-22.94-2.17-33.74-6.44-.54-.21-1.01-.39-1.47-.59l-.12-.05c-.46-.19-.91-.39-1.36-.59-10.67-4.62-20.24-11.12-28.44-19.32-8.2-8.2-14.69-17.76-19.3-28.41-.21-.48-.4-.91-.58-1.34l-.09-.21c-.17-.42-.34-.84-.51-1.27l-.04-.11c-4.29-10.81-6.46-22.18-6.46-33.79,0-11.58,2.16-22.93,6.43-33.72,.18-.47,.36-.93,.55-1.39l.13-.32c.17-.4,.34-.8,.51-1.19l.03-.06c4.62-10.67,11.11-20.24,19.32-28.45L244.28,26.91C261.64,9.56,284.77,0,309.42,0c24.65,0,47.78,9.56,65.13,26.91,35.92,35.91,35.92,94.35,0,130.27l-25.13,25.13h35.54c50.79,0,92.11,41.32,92.11,92.11,0,50.79-41.32,92.11-92.11,92.11H127.04Z"/><path class="cls-2" d="M368.08,21.03c2.23,1.85,4.4,3.81,6.47,5.88,35.92,35.91,35.92,94.35,0,130.27l-25.13,25.13h-24.56l37.41-37.41c33.86-33.86,35.78-87.72,5.81-123.87Zm75.56,182.44c13.21,15.95,21.16,36.4,21.16,58.67,0,50.79-41.32,92.11-92.11,92.11H114.76c-11.59,0-22.94-2.17-33.74-6.44-.54-.21-1.01-.39-1.47-.59l-.12-.05c-.46-.19-.91-.39-1.36-.59-7.99-3.46-15.36-7.97-22-13.46,1.84,2.23,3.79,4.37,5.85,6.43,8.2,8.2,17.77,14.7,28.44,19.32,.45,.2,.91,.39,1.36,.59l.12,.05c.46,.19,.93,.38,1.47,.59,10.8,4.27,22.15,6.44,33.74,6.44H384.96c50.79,0,92.11-41.32,92.11-92.11,0-28.52-13.03-54.05-33.44-70.95Z"/><path class="cls-5" d="M436.34,294.68c2.5-6.28,3.89-13.11,3.89-20.26h0c0-7.15-1.39-13.98-3.89-20.26-.11-.29-.23-.59-.35-.88-.12-.29-.25-.57-.37-.86-2.68-6.21-6.53-12.03-11.58-17.08h0c-5.05-5.05-10.87-8.9-17.08-11.58-.29-.13-.58-.25-.87-.37-.29-.12-.58-.23-.87-.35-6.28-2.5-13.12-3.89-20.27-3.89h-124.49l88.03-88.03c21.49-21.49,21.49-56.67,0-78.16h0c-21.49-21.49-56.67-21.49-78.16,0L87.96,235.34c-5.05,5.05-8.9,10.87-11.58,17.08-.13,.29-.25,.57-.37,.86-.12,.29-.23,.59-.35,.88-2.5,6.28-3.89,13.12-3.89,20.26h0c0,7.15,1.39,13.98,3.89,20.26,.11,.29,.23,.59,.35,.88,.12,.29,.25,.57,.37,.86,2.68,6.21,6.53,12.03,11.58,17.08h0c5.05,5.05,10.87,8.9,17.08,11.58,.29,.13,.57,.25,.86,.37,.29,.12,.58,.23,.88,.35,6.28,2.5,13.12,3.89,20.26,3.89h124.49l-88.03,88.03c-21.49,21.49-21.49,56.67,0,78.16h0c21.49,21.49,56.67,21.49,78.16,0l182.38-182.38c5.05-5.05,8.9-10.87,11.58-17.08,.12-.29,.25-.57,.37-.86,.12-.29,.23-.59,.35-.88Z"/><path class="cls-1" d="M436.34,294.68c2.5-6.28,3.89-13.11,3.89-20.26h0c0-7.15-1.39-13.98-3.89-20.26-.11-.29-.23-.59-.35-.88-.12-.29-.25-.57-.37-.86-2.68-6.21-6.53-12.03-11.58-17.08h0c-5.05-5.05-10.87-8.9-17.08-11.58-.29-.13-.58-.25-.87-.37-.29-.12-.58-.23-.87-.35-6.28-2.5-13.12-3.89-20.27-3.89h-124.49l88.03-88.03c21.49-21.49,21.49-56.67,0-78.16h0c-21.49-21.49-56.67-21.49-78.16,0L87.96,235.34c-5.05,5.05-8.9,10.87-11.58,17.08-.13,.29-.25,.57-.37,.86-.12,.29-.23,.59-.35,.88-2.5,6.28-3.89,13.12-3.89,20.26h0c0,7.15,1.39,13.98,3.89,20.26,.11,.29,.23,.59,.35,.88,.12,.29,.25,.57,.37,.86,2.68,6.21,6.53,12.03,11.58,17.08h0c5.05,5.05,10.87,8.9,17.08,11.58,.29,.13,.57,.25,.86,.37,.29,.12,.58,.23,.88,.35,6.28,2.5,13.12,3.89,20.26,3.89h124.49l-88.03,88.03c-21.49,21.49-21.49,56.67,0,78.16h0c21.49,21.49,56.67,21.49,78.16,0l182.38-182.38c5.05-5.05,8.9-10.87,11.58-17.08,.12-.29,.25-.57,.37-.86,.12-.29,.23-.59,.35-.88Z"/><path class="cls-2" d="M263.81,317.41l-12.28,12.28H127.04c-7.15,0-13.98-1.39-20.26-3.89-.29-.11-.58-.23-.88-.35-.29-.12-.58-.25-.86-.37-6.21-2.68-12.02-6.53-17.08-11.58h0c-2.09-2.09-3.96-4.32-5.64-6.64,3.3,2.38,6.8,4.37,10.44,5.94,.29,.13,.57,.25,.86,.37,.29,.12,.58,.23,.88,.35,6.28,2.5,13.12,3.89,20.26,3.89h149.05Zm72.4-198.56l-100.31,100.31h24.56l88.03-88.03c21.49-21.49,21.49-56.67,0-78.16h0c-2.09-2.09-4.31-3.97-6.63-5.65,15.63,21.57,13.76,52.12-5.65,71.53Zm100.13,135.32c-.11-.29-.23-.59-.35-.88-.12-.29-.25-.57-.37-.86-2.68-6.21-6.53-12.03-11.58-17.08h0c-2.09-2.09-4.32-3.96-6.64-5.64,2.38,3.3,4.37,6.8,5.94,10.44,.13,.29,.25,.57,.37,.86,.12,.29,.23,.59,.35,.88,2.5,6.28,3.89,13.12,3.89,20.26h0c0,7.14-1.39,13.98-3.89,20.26-.12,.29-.23,.59-.35,.88-.12,.29-.25,.57-.37,.86-2.68,6.21-6.53,12.03-11.58,17.08l-182.38,182.38c-19.41,19.41-49.96,21.29-71.53,5.65,1.68,2.32,3.56,4.54,5.65,6.63h0c21.49,21.49,56.67,21.49,78.16,0l182.38-182.38c5.05-5.05,8.9-10.87,11.58-17.08,.12-.29,.25-.57,.37-.86,.12-.29,.23-.59,.35-.88,2.5-6.28,3.89-13.11,3.89-20.26h0c0-7.15-1.39-13.98-3.89-20.26Z"/></g></g></svg>